<svg width="107" height="106" viewBox="0 0 107 106" fill="none" xmlns="http://www.w3.org/2000/svg">
<path d="M37.0177 85.4267C41.3941 81.1506 40.3174 74.0792 35.9555 69.615C31.5937 65.1508 24.5492 63.9103 20.1727 68.1864C10.359 77.7752 8.42235 96.5167 8.42235 96.5167C8.42235 96.5167 27.2039 95.0155 37.0177 85.4267Z" stroke="white" stroke-width="2" stroke-linecap="round"/>
<path d="M39.9537 74.2525C39.9537 74.2525 67.3445 56.579 81.6975 41.7168C91.2779 31.7966 105.128 15.5238 103.753 14.1168C102.378 12.7098 94.9543 5.11189 93.8545 3.98628C92.7547 2.86066 76.2279 16.4224 66.0253 25.6768C50.7712 39.5133 31.1553 65.2476 31.1553 65.2476" stroke="white" stroke-width="2" stroke-linecap="round"/>
<path d="M48.2426 45.6516L61.5555 59.277" stroke="white" stroke-width="2" stroke-linecap="round"/>
</svg>
