<svg width="768" height="1024" viewBox="0 0 768 1024" fill="none" xmlns="http://www.w3.org/2000/svg">
<rect width="768" height="1024" fill="black"/>
<mask id="path-2-inside-1_480_44" fill="white">
<path fill-rule="evenodd" clip-rule="evenodd" d="M355 354C359.971 354 364 349.971 364 345C364 344.318 363.924 343.654 363.781 343.016C363.779 343.01 363.778 343.005 363.777 343H367C378.046 343 387 351.954 387 363V505C387 516.046 378.046 525 367 525H313C301.954 525 293 516.046 293 505V363C293 351.954 301.954 343 313 343H315.223C315.209 343.062 315.196 343.124 315.183 343.186C315.063 343.772 315 344.379 315 345C315 349.971 319.029 354 324 354L355 354Z"/>
</mask>
<path fill-rule="evenodd" clip-rule="evenodd" d="M355 354C359.971 354 364 349.971 364 345C364 344.318 363.924 343.654 363.781 343.016C363.779 343.01 363.778 343.005 363.777 343H367C378.046 343 387 351.954 387 363V505C387 516.046 378.046 525 367 525H313C301.954 525 293 516.046 293 505V363C293 351.954 301.954 343 313 343H315.223C315.209 343.062 315.196 343.124 315.183 343.186C315.063 343.772 315 344.379 315 345C315 349.971 319.029 354 324 354L355 354Z" fill="black"/>
<path d="M355 354L355 352H355L355 354ZM363.781 343.016L365.732 342.577L365.732 342.576L363.781 343.016ZM363.777 343V341H361.272L361.827 343.443L363.777 343ZM315.223 343L317.173 343.443L317.728 341H315.223V343ZM315.183 343.186L313.223 342.785L313.223 342.785L315.183 343.186ZM324 354L324 352H324V354ZM362 345C362 348.866 358.866 352 355 352L355 356C361.075 356 366 351.075 366 345H362ZM361.829 343.455C361.941 343.95 362 344.467 362 345H366C366 344.169 365.908 343.358 365.732 342.577L361.829 343.455ZM365.732 342.576C365.73 342.571 365.729 342.564 365.727 342.557L361.827 343.443C361.827 343.446 361.828 343.45 361.83 343.456L365.732 342.576ZM363.777 345H367V341H363.777V345ZM367 345C376.941 345 385 353.059 385 363H389C389 350.85 379.15 341 367 341V345ZM385 363V505H389V363H385ZM385 505C385 514.941 376.941 523 367 523V527C379.15 527 389 517.15 389 505H385ZM367 523H313V527H367V523ZM313 523C303.059 523 295 514.941 295 505H291C291 517.15 300.85 527 313 527V523ZM295 505V363H291V505H295ZM295 363C295 353.059 303.059 345 313 345V341C300.85 341 291 350.85 291 363H295ZM313 345H315.223V341H313V345ZM317.142 343.587C317.152 343.539 317.163 343.491 317.173 343.443L313.273 342.557C313.255 342.633 313.239 342.709 313.223 342.785L317.142 343.587ZM317 345C317 344.514 317.049 344.042 317.142 343.587L313.223 342.785C313.077 343.502 313 344.243 313 345H317ZM324 352C320.134 352 317 348.866 317 345H313C313 351.075 317.925 356 324 356V352ZM355 352L324 352L324 356L355 356L355 352Z" fill="white" mask="url(#path-2-inside-1_480_44)"/>
<mask id="path-4-inside-2_480_44" fill="white">
<path fill-rule="evenodd" clip-rule="evenodd" d="M475 451C475 439.954 466.046 431 455 431L313 431C301.954 431 293 439.954 293 451L293 505C293 516.046 301.954 525 313 525L455 525C466.046 525 475 516.046 475 505V501.945C474.672 501.981 474.338 502 474 502C469.029 502 465 497.971 465 493V462C465 457.029 469.029 453 474 453C474.338 453 474.672 453.019 475 453.055V451Z"/>
</mask>
<path fill-rule="evenodd" clip-rule="evenodd" d="M475 451C475 439.954 466.046 431 455 431L313 431C301.954 431 293 439.954 293 451L293 505C293 516.046 301.954 525 313 525L455 525C466.046 525 475 516.046 475 505V501.945C474.672 501.981 474.338 502 474 502C469.029 502 465 497.971 465 493V462C465 457.029 469.029 453 474 453C474.338 453 474.672 453.019 475 453.055V451Z" fill="black"/>
<path d="M455 431L455 433H455V431ZM313 431L313 429L313 431ZM293 451L295 451V451H293ZM293 505L291 505L293 505ZM313 525L313 523H313V525ZM455 525L455 527H455V525ZM475 501.945H477V499.712L474.78 499.957L475 501.945ZM475 453.055L474.78 455.043L477 455.288V453.055H475ZM455 433C464.941 433 473 441.059 473 451H477C477 438.85 467.15 429 455 429V433ZM313 433L455 433L455 429L313 429L313 433ZM295 451C295 441.059 303.059 433 313 433L313 429C300.85 429 291 438.85 291 451H295ZM295 505L295 451L291 451L291 505L295 505ZM313 523C303.059 523 295 514.941 295 505L291 505C291 517.15 300.85 527 313 527V523ZM455 523L313 523L313 527L455 527L455 523ZM473 505C473 514.941 464.941 523 455 523V527C467.15 527 477 517.15 477 505H473ZM473 501.945V505H477V501.945H473ZM474.78 499.957C474.525 499.985 474.264 500 474 500V504C474.412 504 474.819 503.977 475.22 503.933L474.78 499.957ZM474 500C470.134 500 467 496.866 467 493H463C463 499.075 467.925 504 474 504V500ZM467 493V462H463V493H467ZM467 462C467 458.134 470.134 455 474 455V451C467.925 451 463 455.925 463 462H467ZM474 455C474.264 455 474.525 455.015 474.78 455.043L475.22 451.067C474.819 451.023 474.412 451 474 451V455ZM473 451V453.055H477V451H473Z" fill="white" mask="url(#path-4-inside-2_480_44)"/>
<path d="M397.221 388.965C396.841 389.365 396.858 389.998 397.259 390.378L403.789 396.571C404.19 396.951 404.823 396.934 405.203 396.533C405.583 396.133 405.566 395.5 405.166 395.12L399.36 389.615L404.865 383.81C405.245 383.409 405.228 382.776 404.827 382.396C404.427 382.016 403.794 382.033 403.414 382.434L397.221 388.965ZM426.535 421.36C426.925 421.75 427.558 421.75 427.949 421.36L434.313 414.996C434.703 414.605 434.703 413.972 434.313 413.581C433.922 413.191 433.289 413.191 432.899 413.581L427.242 419.238L421.585 413.582C421.194 413.191 420.561 413.191 420.171 413.582C419.78 413.972 419.78 414.605 420.171 414.996L426.535 421.36ZM427.242 389.652L428.242 389.652L427.242 389.652ZM397.947 389.653C397.973 390.652 397.973 390.652 397.974 390.652C397.974 390.652 397.974 390.652 397.975 390.652C397.975 390.652 397.977 390.652 397.978 390.652C397.982 390.652 397.987 390.652 397.994 390.652C398.008 390.651 398.029 390.651 398.057 390.65C398.112 390.649 398.194 390.646 398.301 390.644C398.516 390.638 398.83 390.63 399.23 390.62C400.03 390.601 401.174 390.573 402.546 390.543C405.291 390.482 408.95 390.409 412.608 390.361C416.267 390.312 419.919 390.288 422.651 390.324C424.02 390.342 425.143 390.375 425.917 390.427C426.309 390.453 426.581 390.482 426.743 390.51C426.832 390.525 426.836 390.532 426.798 390.517C426.784 390.512 426.694 390.478 426.591 390.394C426.493 390.315 426.242 390.071 426.242 389.652L428.242 389.652C428.242 389.21 427.976 388.942 427.85 388.84C427.719 388.734 427.587 388.678 427.517 388.651C427.368 388.593 427.208 388.56 427.083 388.539C426.815 388.493 426.458 388.458 426.049 388.431C425.221 388.376 424.055 388.342 422.678 388.324C419.918 388.288 416.245 388.312 412.581 388.361C408.915 388.409 405.25 388.483 402.502 388.543C401.128 388.574 399.983 388.601 399.181 388.621C398.78 388.631 398.465 388.639 398.25 388.644C398.143 388.647 398.06 388.649 398.005 388.651C397.977 388.651 397.956 388.652 397.942 388.652C397.934 388.653 397.929 388.653 397.926 388.653C397.924 388.653 397.922 388.653 397.921 388.653C397.921 388.653 397.921 388.653 397.92 388.653C397.92 388.653 397.92 388.653 397.947 389.653ZM426.242 389.652C426.242 394.275 426.242 402.025 426.242 408.619C426.242 411.916 426.242 414.925 426.242 417.109C426.242 418.201 426.242 419.087 426.242 419.7C426.242 420.006 426.242 420.244 426.242 420.406C426.242 420.487 426.242 420.549 426.242 420.59C426.242 420.611 426.242 420.626 426.242 420.637C426.242 420.642 426.242 420.646 426.242 420.649C426.242 420.65 426.242 420.651 426.242 420.652C426.242 420.652 426.242 420.652 426.242 420.652C426.242 420.653 426.242 420.653 427.242 420.653C428.242 420.653 428.242 420.653 428.242 420.652C428.242 420.652 428.242 420.652 428.242 420.652C428.242 420.651 428.242 420.65 428.242 420.649C428.242 420.646 428.242 420.642 428.242 420.637C428.242 420.626 428.242 420.611 428.242 420.59C428.242 420.548 428.242 420.487 428.242 420.406C428.242 420.244 428.242 420.006 428.242 419.7C428.242 419.087 428.242 418.201 428.242 417.109C428.242 414.925 428.242 411.916 428.242 408.619C428.242 402.025 428.242 394.275 428.242 389.652L426.242 389.652Z" fill="white"/>
</svg>
